<svg width="26" height="26" viewBox="0 0 26 26" fill="none" xmlns="http://www.w3.org/2000/svg">
<path fill-rule="evenodd" clip-rule="evenodd" d="M12.8333 25.6667C5.74568 25.6667 0 19.921 0 12.8333C0 5.74568 5.74568 0 12.8333 0C19.921 0 25.6667 5.74568 25.6667 12.8333C25.6667 19.921 19.921 25.6667 12.8333 25.6667ZM21.4661 18.8121C22.6434 17.1154 23.3333 15.0549 23.3333 12.8333C23.3333 7.03434 18.6323 2.33333 12.8333 2.33333C7.03434 2.33333 2.33333 7.03434 2.33333 12.8333C2.33333 15.0549 3.02328 17.1154 4.20059 18.8121C5.51361 17.0777 8.59904 16.3333 12.8333 16.3333C17.0676 16.3333 20.1531 17.0777 21.4661 18.8121ZM19.7921 20.6964C19.4507 19.4686 16.9976 18.6667 12.8333 18.6667C8.66906 18.6667 6.21601 19.4686 5.87454 20.6964C7.72718 22.3372 10.1639 23.3333 12.8333 23.3333C15.5027 23.3333 17.9395 22.3372 19.7921 20.6964ZM12.8333 5.83333C10.0089 5.83333 8.16667 7.88172 8.16667 10.5C8.16667 14.4986 10.221 16.3333 12.8333 16.3333C15.4211 16.3333 17.5 14.5595 17.5 10.7333C17.5 8.07517 15.6499 5.83333 12.8333 5.83333ZM10.5 10.5C10.5 13.1475 11.4546 14 12.8333 14C14.2073 14 15.1667 13.1815 15.1667 10.7333C15.1667 9.27549 14.2516 8.16667 12.8333 8.16667C11.356 8.16667 10.5 9.11846 10.5 10.5Z" fill="white"/>
</svg>
