<svg width="59" height="59" viewBox="0 0 59 59" fill="none" xmlns="http://www.w3.org/2000/svg">
<path fill-rule="evenodd" clip-rule="evenodd" d="M29.3333 58.6667C13.133 58.6667 0 45.5337 0 29.3333C0 13.133 13.133 0 29.3333 0C45.5337 0 58.6667 13.133 58.6667 29.3333C58.6667 45.5337 45.5337 58.6667 29.3333 58.6667ZM49.0653 42.9991C51.7563 39.1208 53.3333 34.4113 53.3333 29.3333C53.3333 16.0785 42.5882 5.33333 29.3333 5.33333C16.0785 5.33333 5.33333 16.0785 5.33333 29.3333C5.33333 34.4113 6.91035 39.1208 9.60134 42.9991C12.6025 39.0348 19.6549 37.3333 29.3333 37.3333C39.0117 37.3333 46.0641 39.0348 49.0653 42.9991ZM45.2392 47.306C44.4587 44.4996 38.8517 42.6667 29.3333 42.6667C19.815 42.6667 14.208 44.4996 13.4275 47.306C17.6621 51.0565 23.2318 53.3333 29.3333 53.3333C35.4348 53.3333 41.0045 51.0565 45.2392 47.306ZM29.3333 13.3333C22.8776 13.3333 18.6667 18.0154 18.6667 24C18.6667 33.1397 23.3623 37.3333 29.3333 37.3333C35.2482 37.3333 40 33.279 40 24.5333C40 18.4575 35.7712 13.3333 29.3333 13.3333ZM24 24C24 30.0514 26.1819 32 29.3333 32C32.4739 32 34.6667 30.129 34.6667 24.5333C34.6667 21.2011 32.5751 18.6667 29.3333 18.6667C25.9566 18.6667 24 20.8422 24 24Z" fill="#F72585"/>
</svg>
