<svg width="33" height="35" viewBox="0 0 33 35" fill="none" xmlns="http://www.w3.org/2000/svg">
<path fill-rule="evenodd" clip-rule="evenodd" d="M21.9233 9.38944C19.4904 3.36768 14.4811 0.529819 9.67763 1.01101C9.35942 0.671317 8.96233 0.396433 8.50125 0.217451C6.92583 -0.3941 5.14645 0.324817 4.43801 1.85911C4.23112 2.30716 4.1364 2.77964 4.143 3.24406C0.34567 6.23146 -1.28553 11.7416 1.15439 17.7806C2.73307 21.688 2.8299 24.1957 2.01266 26.3716C1.87601 26.7354 1.46093 27.61 1.17977 28.2025C1.04675 28.4828 0.9437 28.6999 0.914294 28.7699L0.662129 29.3757L2.70606 34.4346L11.7375 30.7856C12.6795 32.2378 13.9602 32.9465 15.8874 33.2653C18.258 33.6574 20.649 32.6914 22.0818 30.7625C23.1098 29.3787 23.5076 27.7296 23.2885 26.1187L32.3759 22.4472L30.332 17.3883L29.7298 17.1277C29.6664 17.1002 29.4504 17.0187 29.1681 16.912C28.5557 16.6807 27.6311 16.3315 27.2743 16.1611C25.1709 15.1566 23.4964 13.2831 21.9233 9.38944ZM20.1174 27.3999L14.839 29.5326C15.2061 29.8378 15.6823 29.9879 16.4096 30.1082C17.5973 30.3046 18.7952 29.8207 19.513 28.8543C19.8455 28.4068 20.0463 27.9113 20.1174 27.3999ZM25.8952 19.0487C26.3452 19.2636 27.2661 19.6166 27.8733 19.845L28.2102 20.6789L4.4743 30.2689L4.13763 29.4355C4.41426 28.8557 4.8337 27.9617 5.00832 27.4968C6.1188 24.5402 5.9901 21.2071 4.12138 16.5819C1.85569 10.9741 3.99323 6.3011 7.95005 4.70244C11.8957 3.10829 16.6975 4.99732 18.9563 10.5882C20.819 15.1986 23.0425 17.6864 25.8952 19.0487Z" fill="white"/>
</svg>
