<svg width="23" height="24" viewBox="0 0 23 24" fill="none" xmlns="http://www.w3.org/2000/svg">
<path fill-rule="evenodd" clip-rule="evenodd" d="M15.6408 15.2033L11.7091 12.87V7.58496C11.7091 7.11829 11.3358 6.74496 10.8691 6.74496H10.7991C10.3324 6.74496 9.95911 7.11829 9.95911 7.58496V13.0916C9.95911 13.5 10.1691 13.885 10.5308 14.095L14.7891 16.65C15.1858 16.8833 15.6991 16.7666 15.9324 16.37C16.1774 15.9616 16.0491 15.4366 15.6408 15.2033V15.2033ZM21.8358 3.25662L18.2424 0.269955C17.7524 -0.138378 17.0174 -0.0800446 16.5974 0.421622C16.1891 0.911622 16.2591 1.64662 16.7491 2.06662L20.3308 5.05329C20.8208 5.46162 21.5558 5.40329 21.9758 4.90162C22.3958 4.41162 22.3258 3.67662 21.8358 3.25662V3.25662ZM1.90911 5.05329L5.49078 2.06662C5.99245 1.64662 6.06245 0.911622 5.64245 0.421622C5.23411 -0.0800445 4.49911 -0.138378 4.00911 0.269955L0.41578 3.25662C-0.0742201 3.67662 -0.14422 4.41162 0.27578 4.90162C0.684113 5.40329 1.41911 5.46162 1.90911 5.05329ZM11.1258 2.07829C5.32745 2.07829 0.62578 6.77996 0.62578 12.5783C0.62578 18.3766 5.32745 23.0783 11.1258 23.0783C16.9241 23.0783 21.6258 18.3766 21.6258 12.5783C21.6258 6.77996 16.9241 2.07829 11.1258 2.07829ZM11.1258 20.745C6.62245 20.745 2.95911 17.0816 2.95911 12.5783C2.95911 8.07496 6.62245 4.41162 11.1258 4.41162C15.6291 4.41162 19.2924 8.07496 19.2924 12.5783C19.2924 17.0816 15.6291 20.745 11.1258 20.745Z" fill="white"/>
</svg>
