<svg width="54" height="38" viewBox="0 0 54 38" fill="none" xmlns="http://www.w3.org/2000/svg">
<path fill-rule="evenodd" clip-rule="evenodd" d="M18.6667 23.3333C12.4267 23.3333 -1.58946e-07 26.4533 -1.58946e-07 32.6667V37.3333H37.3333V32.6667C37.3333 26.4533 24.9067 23.3333 18.6667 23.3333ZM6.24 32C8.48 30.4533 13.8933 28.6667 18.6667 28.6667C23.44 28.6667 28.8533 30.4533 31.0933 32H6.24ZM18.6667 18.6667C23.8133 18.6667 28 14.48 28 9.33333C28 4.18667 23.8133 3.17891e-07 18.6667 3.17891e-07C13.52 3.17891e-07 9.33333 4.18667 9.33333 9.33333C9.33333 14.48 13.52 18.6667 18.6667 18.6667ZM18.6667 5.33333C20.88 5.33333 22.6667 7.12 22.6667 9.33333C22.6667 11.5467 20.88 13.3333 18.6667 13.3333C16.4533 13.3333 14.6667 11.5467 14.6667 9.33333C14.6667 7.12 16.4533 5.33333 18.6667 5.33333ZM37.44 23.4933C40.5333 25.7333 42.6667 28.72 42.6667 32.6667V37.3333H53.3333V32.6667C53.3333 27.28 44 24.2133 37.44 23.4933V23.4933ZM34.6667 18.6667C39.8133 18.6667 44 14.48 44 9.33333C44 4.18667 39.8133 3.17891e-07 34.6667 3.17891e-07C33.2267 3.17891e-07 31.8933 0.346667 30.6667 0.933334C32.3467 3.30667 33.3333 6.21333 33.3333 9.33333C33.3333 12.4533 32.3467 15.36 30.6667 17.7333C31.8933 18.32 33.2267 18.6667 34.6667 18.6667Z" fill="#F72585"/>
</svg>
