<svg width="34" height="34" viewBox="0 0 34 34" fill="none" xmlns="http://www.w3.org/2000/svg">
<path fill-rule="evenodd" clip-rule="evenodd" d="M23.5616 22.5985C23.4348 22.2643 23.3043 21.9203 23.258 21.795C23.242 21.7518 23.2265 21.7097 23.2116 21.6688H28.3333C31.4493 21.6688 33.3333 19.4729 33.3333 16.6688C33.3333 6.76284 31.2586 0.00211748 26.6667 0.00211748C26.6667 0.00211748 15.0386 0.0024926 14.9982 0.00163858C13.9014 -0.0180314 12.5091 0.136197 11.1052 0.638484C10.4917 0.857974 9.92737 1.13106 9.42157 1.45829C8.8214 0.579182 7.81143 0.00211751 6.66667 0.00211751H3.33333C1.49238 0.00211751 0 1.4945 0 3.33545V18.3355C0 20.1764 1.49238 21.6688 3.33333 21.6688H6.66667C6.99726 21.6688 7.31662 21.6207 7.61811 21.531C8.7796 23.2222 11.7177 26.5796 14.0783 29.2771L14.0784 29.2771C15.3583 30.7398 16.4685 32.0084 17.0338 32.7123L17.5342 33.3354H18.3462C19.358 33.3356 20.2371 33.2587 21.2471 32.9646C23.4864 32.3126 25 30.7888 25 28.3354C25 27.4686 24.8465 26.5444 24.5637 25.5186C24.3766 24.8399 24.1454 24.1545 23.8285 23.3039C23.7832 23.1825 23.6742 22.8951 23.5621 22.5998L23.5616 22.5985ZM10 18.3355V6.66878C10 5.16507 10.7533 4.30467 12.2281 3.77698C13.1844 3.43484 14.209 3.32135 14.9427 3.33446H14.9446C20.7875 3.33516 22.5053 3.33537 24.2231 3.33543L26.6667 3.33545C28.3585 3.33545 30 8.68421 30 16.6688C30 17.7356 29.4854 18.3355 28.3333 18.3355H21.6667C19.6758 18.3355 19.2592 19.8749 19.6744 21.5416C19.7721 21.9337 19.9149 22.3652 20.1316 22.9512C20.1834 23.0911 20.3228 23.4586 20.4533 23.8027L20.4552 23.8078L20.4555 23.8083C20.5631 24.092 20.6643 24.3588 20.7049 24.4677C20.9907 25.2348 21.1936 25.8362 21.3502 26.4044C21.5599 27.1649 21.6667 27.8078 21.6667 28.3354C21.6667 29.0871 21.2703 29.4861 20.3152 29.7642C19.914 29.8811 19.519 29.9455 19.0999 29.9769C18.223 28.9286 16.9671 27.4957 15.6745 26.021C13.1699 23.1636 10.5274 20.1488 10.2362 19.4688C10.0741 19.0903 10 18.7358 10 18.3355ZM3.33333 18.3355V3.33545H6.66667V18.3355H3.33333Z" fill="#1C3554"/>
</svg>
