<svg width="35" height="34" viewBox="0 0 35 34" fill="none" xmlns="http://www.w3.org/2000/svg">
<path fill-rule="evenodd" clip-rule="evenodd" d="M20.428 0.568672C18.2446 1.34183 16.9293 2.10035 15.5955 3.4614C15.1017 3.96531 14.666 4.51588 14.291 5.11097C13.6533 4.9004 12.9964 4.75497 12.3234 4.67453C10.3907 4.44348 8.81021 4.68272 6.70513 5.42817C1.06722 7.42466 -1.37556 13.5469 0.772877 19.6139C2.39538 24.1957 6.51737 27.717 12.7914 30.3117C16.0846 31.6736 20.0609 32.7674 22.7635 33.1413L24.3099 33.3552L25.377 32.2158C27.2421 30.2244 29.6439 26.872 31.3461 23.7411C34.589 17.7763 35.5764 12.4457 33.9539 7.86387C31.8282 1.86108 26.0238 -1.38685 20.428 0.568672ZM30.9374 8.93206C32.2086 12.5217 31.3844 16.9711 28.5347 22.2126C26.981 25.0703 24.7758 28.1573 23.1069 29.9581C20.6766 29.6089 17.0202 28.5977 14.0143 27.3546C8.50106 25.0745 5.06048 22.1353 3.78933 18.5457C2.20193 14.063 3.89581 9.81772 7.77331 8.44463C9.44705 7.85193 10.5487 7.68516 11.9436 7.85191C12.7675 7.9504 13.5494 8.18886 14.2884 8.57113L15.8174 9.362L16.4945 7.77935C16.8322 6.98998 17.2952 6.29899 17.8811 5.7011C18.8336 4.72911 19.7373 4.20797 21.4899 3.58733C25.3251 2.24708 29.372 4.51157 30.9374 8.93206Z" fill="white"/>
</svg>
