<svg width="34" height="34" viewBox="0 0 34 34" fill="none" xmlns="http://www.w3.org/2000/svg">
<path fill-rule="evenodd" clip-rule="evenodd" d="M33.3333 16.6667C33.3333 13.8625 31.4493 11.6667 28.3333 11.6667H23.2116C23.2265 11.6258 23.242 11.5837 23.258 11.5405C23.3043 11.4152 23.4348 11.0712 23.5616 10.7371L23.5624 10.735L23.5638 10.7314C23.6752 10.4376 23.7834 10.1524 23.8285 10.0315C24.1454 9.18093 24.3766 8.4956 24.5637 7.81688C24.8465 6.79106 25 5.86685 25 5C25 2.54666 23.4864 1.02286 21.2471 0.37081C20.2371 0.0767133 19.358 -0.000153391 18.3333 0H17.5342L17.0338 0.623141C16.4685 1.32707 15.3583 2.59571 14.0783 4.05833C11.7171 6.75653 8.77817 10.1148 7.61726 11.8057C7.31602 11.7162 6.99695 11.6682 6.66667 11.6682H3.33333C1.49238 11.6682 0 13.1605 0 15.0015V30.0015C0 31.8424 1.49238 33.3348 3.33333 33.3348H6.66667C7.81187 33.3348 8.82219 32.7573 9.42228 31.8776C9.92789 32.2046 10.492 32.4776 11.1052 32.697C12.5091 33.1993 13.9014 33.3535 15.0573 33.3323L26.6667 33.3333C31.2586 33.3333 33.3333 26.5726 33.3333 16.6667ZM12.2281 29.5585C10.7533 29.0308 10 28.1704 10 26.6667V15.0015V15C10 14.5997 10.0741 14.2452 10.2362 13.8666C10.5274 13.1867 13.1699 10.1719 15.6744 7.31447L15.6744 7.31446C16.9671 5.83971 18.223 4.40688 19.0999 3.35855C19.519 3.38998 19.914 3.45438 20.3152 3.57122C21.2703 3.84933 21.6667 4.24838 21.6667 5C21.6667 5.52764 21.5599 6.17052 21.3502 6.93101C21.1936 7.4993 20.9907 8.10062 20.7049 8.86777C20.6643 8.97665 20.5631 9.24343 20.4555 9.52711L20.4553 9.52743C20.3242 9.87301 20.1836 10.2436 20.1316 10.3842C19.9149 10.9703 19.7721 11.4018 19.6744 11.7939C19.2592 13.4606 19.6758 15 21.6667 15H28.3333C29.4854 15 30 15.5998 30 16.6667C30 24.6512 28.3585 30 26.6667 30H15L14.9384 30.001C14.209 30.0141 13.1844 29.9006 12.2281 29.5585ZM3.33333 30.0015V15.0015H6.66667V30.0015H3.33333Z" fill="#1C3554"/>
</svg>
