<svg width="35" height="35" viewBox="0 0 35 35" fill="none" xmlns="http://www.w3.org/2000/svg">
<path fill-rule="evenodd" clip-rule="evenodd" d="M0.193915 21.9632C-0.382514 19.953 0.340002 17.7745 2.18046 15.4107C0.918895 12.6936 0.704954 10.4084 1.71881 8.57934C2.73267 6.75029 4.784 5.72075 7.75681 5.35075C8.78606 2.53737 10.2507 0.770214 12.2609 0.193786C14.2711 -0.382642 16.4497 0.339873 18.8134 2.18033C21.5305 0.918766 23.8157 0.704825 25.6448 1.71869C27.4738 2.73255 28.5034 4.78388 28.8734 7.75668C31.6867 8.78593 33.4539 10.2505 34.0303 12.2608C34.6068 14.271 33.8842 16.4495 32.0438 18.8132C33.3054 21.5304 33.5193 23.8156 32.5054 25.6446C31.4916 27.4737 29.4402 28.5032 26.4674 28.8732C25.4382 31.6866 23.9736 33.4538 21.9633 34.0302C19.9531 34.6066 17.7746 33.8841 15.4109 32.0437C12.6937 33.3052 10.4085 33.5192 8.57947 32.5053C6.75042 31.4914 5.72088 29.4401 5.35088 26.4673C2.5375 25.4381 0.770343 23.9735 0.193915 21.9632ZM7.30975 23.7486C7.94524 23.9418 8.39526 24.5076 8.44057 25.1702C8.61752 27.7577 9.24593 29.216 10.1309 29.7065C11.0158 30.197 12.5855 29.9572 14.8736 28.7361C15.4596 28.4234 16.1778 28.5052 16.6784 28.9417C18.6332 30.6463 20.1087 31.2331 21.0813 30.9542C22.0539 30.6753 22.9942 29.3958 23.7487 26.9144C23.9419 26.2789 24.5077 25.8289 25.1704 25.7835C27.7579 25.6066 29.2161 24.9782 29.7066 24.0933C30.1972 23.2083 29.9573 21.6387 28.7362 19.3505C28.4235 18.7646 28.5053 18.0463 28.9419 17.5457C30.6464 15.5909 31.2332 14.1154 30.9543 13.1428C30.6754 12.1702 29.3959 11.2299 26.9145 10.4754C26.279 10.2822 25.829 9.71643 25.7837 9.05376C25.6067 6.46624 24.9783 5.00799 24.0934 4.51747C23.2085 4.02694 21.6388 4.26677 19.3507 5.48789C18.7647 5.80062 18.0464 5.71878 17.5458 5.28225C15.591 3.57772 14.1155 2.99094 13.1429 3.26982C12.1704 3.54871 11.23 4.82822 10.4755 7.30962C10.2823 7.94511 9.71656 8.39513 9.05389 8.44045C6.46637 8.61739 5.00812 9.24581 4.5176 10.1307C4.02707 11.0157 4.2669 12.5853 5.48802 14.8734C5.80075 15.4594 5.71891 16.1777 5.28238 16.6783C3.57785 18.6331 2.99107 20.1086 3.26995 21.0812C3.54884 22.0538 4.82835 22.9941 7.30975 23.7486ZM24.5958 14.4786L15.2583 17.156L13.8283 12.1688L10.7522 13.0508L13.0643 21.1141L25.4778 17.5546L24.5958 14.4786Z" fill="#FFF5F9"/>
</svg>
