<svg width="54" height="54" viewBox="0 0 54 54" fill="none" xmlns="http://www.w3.org/2000/svg">
<path fill-rule="evenodd" clip-rule="evenodd" d="M5.33333 10.6667H-1.58946e-07V48C-1.58946e-07 50.9333 2.4 53.3333 5.33333 53.3333H42.6667V48H5.33333V10.6667ZM48 -1.58946e-07H16C13.0667 -1.58946e-07 10.6667 2.4 10.6667 5.33333V37.3333C10.6667 40.2667 13.0667 42.6667 16 42.6667H48C50.9333 42.6667 53.3333 40.2667 53.3333 37.3333V5.33333C53.3333 2.4 50.9333 -1.58946e-07 48 -1.58946e-07ZM48 37.3333H16V5.33333H48V37.3333ZM26.6667 9.33333V33.3333L42.6667 21.3333L26.6667 9.33333Z" fill="#F72585"/>
</svg>
