<svg width="24" height="24" viewBox="0 0 24 24" fill="none" xmlns="http://www.w3.org/2000/svg">
<path fill-rule="evenodd" clip-rule="evenodd" d="M2.33333 4.66667H7.9473e-08V21C7.9473e-08 22.2833 1.05 23.3333 2.33333 23.3333H18.6667V21H2.33333V4.66667ZM21 7.9473e-08H7C5.71667 7.9473e-08 4.66667 1.05 4.66667 2.33333V16.3333C4.66667 17.6167 5.71667 18.6667 7 18.6667H21C22.2833 18.6667 23.3333 17.6167 23.3333 16.3333V2.33333C23.3333 1.05 22.2833 7.9473e-08 21 7.9473e-08ZM21 16.3333H7V2.33333H21V16.3333ZM11.6667 4.08333V14.5833L18.6667 9.33333L11.6667 4.08333Z" fill="white"/>
</svg>
